<svg width="25" height="22" viewBox="0 0 25 22" fill="none" xmlns="http://www.w3.org/2000/svg">
<path d="M22.4302 5.94258C22.446 6.16465 22.446 6.38677 22.446 6.60884C22.446 13.3823 17.2906 21.1869 7.86802 21.1869C4.96509 21.1869 2.26841 20.3461 0 18.8868C0.412451 18.9343 0.808984 18.9502 1.2373 18.9502C3.63257 18.9502 5.83755 18.1412 7.59834 16.7611C5.3458 16.7135 3.45811 15.2383 2.80771 13.2078C3.125 13.2554 3.44224 13.2871 3.77539 13.2871C4.2354 13.2871 4.69546 13.2236 5.12373 13.1126C2.77603 12.6367 1.01519 10.5746 1.01519 8.08408V8.02065C1.69727 8.40137 2.49048 8.63931 3.33115 8.671C1.95107 7.75093 1.04692 6.18052 1.04692 4.40386C1.04692 3.4521 1.30068 2.57964 1.74487 1.81821C4.26709 4.92734 8.05835 6.95776 12.3096 7.17988C12.2303 6.79917 12.1827 6.40264 12.1827 6.00605C12.1827 3.18242 14.4669 0.882324 17.3064 0.882324C18.7816 0.882324 20.1141 1.50098 21.05 2.50034C22.208 2.27827 23.3184 1.84995 24.302 1.26304C23.9212 2.45278 23.1122 3.45215 22.0494 4.08662C23.0805 3.97563 24.0799 3.69004 24.9999 3.29351C24.302 4.30869 23.4295 5.21284 22.4302 5.94258Z" fill="black"/>
</svg>
