<svg width="24" height="17" viewBox="0 0 24 17" fill="none" xmlns="http://www.w3.org/2000/svg">
<path d="M23.2084 2.79478C22.9358 1.76831 22.1326 0.959885 21.1128 0.685536C19.2642 0.187012 11.8519 0.187012 11.8519 0.187012C11.8519 0.187012 4.43954 0.187012 2.59097 0.685536C1.57114 0.959928 0.767925 1.76831 0.495312 2.79478C0 4.65533 0 8.53718 0 8.53718C0 8.53718 0 12.419 0.495312 14.2796C0.767925 15.3061 1.57114 16.0808 2.59097 16.3552C4.43954 16.8537 11.8519 16.8537 11.8519 16.8537C11.8519 16.8537 19.2642 16.8537 21.1128 16.3552C22.1326 16.0808 22.9358 15.3061 23.2084 14.2796C23.7037 12.419 23.7037 8.53718 23.7037 8.53718C23.7037 8.53718 23.7037 4.65533 23.2084 2.79478ZM9.4276 12.0616V5.01275L15.6229 8.53727L9.4276 12.0616Z" fill="black"/>
</svg>
